Genre:Drama | Thriller
Language:English  http://www.imdb.com/title/tt0798817/
Source:BluRay.DTS.x264.DNL
Subtitles:Romana


Format : Matroska
File size : 1.71 GiB
Duration : 1h 33mn
Overall bit rate : 2 624 Kbps


Video
Format settings, CABAC : Yes
Format settings, ReFrames : 4 frames
Format settings, GOP : M=4, N=16
Codec ID : V_MPEG4/ISO/AVC
Duration : 1h 33mn
Bit rate : 2 188 Kbps
Nominal bit rate : 2 300 Kbps
Width : 1 280 pixels
Height : 544 pixels
Display aspect ratio : 2.35:1
Frame rate mode : Variable
Frame rate : 25.000 fps
Color space : YUV
Chroma subsampling : 4:2:0
Bit depth : 8 bits
Scan type : Progressive
Bits/(Pixel*Frame) : 0.126
Stream size : 1.43 GiB (83%)
Writing library : x264 core 106 r1732 b20059a


Audio
ID : 2
Format : AC-3
Format/Info : Audio Coding 3
Mode extension : CM (complete main)
Codec ID : A_AC3
Duration : 1h 33mn
Bit rate mode : Constant
Bit rate : 384 Kbps
Channel(s) : 6 channels
Channel positions : Front: L C R, Side: L R, LFE
Sampling rate : 48.0 KHz
Bit depth : 16 bits
Video delay : -1mn 5s
Stream size : 256 MiB (15%)
Language : English



Plot:
A naive young man assumes a dead man's identity and finds himself embroiled in an underground world of power, violence, and chance where men gamble behind closed doors on the lives of other men.

